<?xml version="1.0" encoding="UTF-8"?>
<svg width="54px" height="54px" viewBox="0 0 54 54" version="1.1" xmlns="http://www.w3.org/2000/svg" xmlns:xlink="http://www.w3.org/1999/xlink">
    <!-- Generator: Sketch 58 (84663) - https://sketch.com -->
    <title>Twitter</title>
    <desc>Created with Sketch.</desc>
    <g id="Design" stroke="none" stroke-width="1" fill="none" fill-rule="evenodd">
        <g id="Spotify-home-page" transform="translate(-1392.000000, -1046.000000)">
            <g id="Twitter" transform="translate(1392.000000, 1046.000000)">
                <circle id="Twitter-background" fill="#222326" cx="27" cy="27" r="27"></circle>
                <path d="M22.547808,37 C31.604832,37 36.557664,29.3061552 36.557664,22.6346652 C36.557664,22.4160391 36.553344,22.1983975 36.543552,21.981937 C37.504896,21.2693599 38.340672,20.3801888 39,19.367776 C38.117664,19.7695912 37.168224,20.0404867 36.172224,20.1625471 C37.188864,19.5376763 37.969344,18.5485929 38.337408,17.3697251 C37.385856,17.9480357 36.332448,18.3686521 35.21088,18.595153 C34.312416,17.613846 33.032736,17 31.616736,17 C28.897248,17 26.692032,19.26117 26.692032,22.0485781 C26.692032,22.4448808 26.735328,22.8300603 26.819712,23.1997854 C22.72752,22.9888374 19.09872,20.9796632 16.6704,17.9247064 C16.247136,18.6706533 16.003584,19.5376763 16.003584,20.4622843 C16.003584,22.2140488 16.872864,23.7603776 18.194688,24.6650031 C17.387136,24.6395082 16.628256,24.4119245 15.964608,24.0333402 C15.963456,24.0544055 15.963456,24.0755692 15.963456,24.0977173 C15.963456,26.5432576 17.661024,28.5846204 19.913856,29.0475642 C19.500384,29.162931 19.06512,29.2251425 18.61584,29.2251425 C18.298656,29.2251425 17.990112,29.192954 17.690208,29.1340893 C18.317088,31.1400152 20.134752,32.5997204 22.290144,32.6408666 C20.604576,33.9950487 18.481632,34.8020258 16.174656,34.8020258 C15.777312,34.8020258 15.38544,34.7787949 15,34.7321364 C17.179296,36.1640827 19.766688,37 22.547808,37" id="Twitter-logo" fill="#FFFFFF"></path>
            </g>
        </g>
    </g>
</svg>